<svg xmlns="http://www.w3.org/2000/svg" xmlns:xlink="http://www.w3.org/1999/xlink" width="276" zoomAndPan="magnify" viewBox="0 0 206.87999 56.999997" height="76" preserveAspectRatio="xMidYMid meet" version="1.0"><defs><g/><clipPath id="f450f5af6a"><path d="M 3.316406 2.84375 L 31.050781 2.84375 L 31.050781 53.8125 L 3.316406 53.8125 Z M 3.316406 2.84375 " clip-rule="nonzero"/></clipPath></defs><g clip-path="url(#f450f5af6a)"><path fill="#5e17eb" d="M 44.101562 43.722656 L 40.386719 41.992188 L 52.367188 31.269531 L 46.59375 41.84375 L 50.457031 43.640625 L 37.734375 53.8125 Z M 15.449219 30.546875 L 7.636719 29.828125 L 22.128906 2.84375 L 18.695312 25.566406 L 26.828125 26.3125 L 10.628906 52.792969 Z M -21.640625 39.746094 L -25.171875 44.347656 L -36.707031 24.675781 L -23.546875 35.757812 L -19.871094 30.96875 L -9.328125 51.507812 L -21.640625 39.746094 " fill-opacity="1" fill-rule="nonzero"/></g><g fill="#5e17eb" fill-opacity="1"><g transform="translate(35.061298, 43.4913)"><g><path d="M 26.6875 -15.828125 C 28.46875 -15.160156 29.847656 -14.191406 30.828125 -12.921875 C 31.816406 -11.660156 32.3125 -10.132812 32.3125 -8.34375 C 32.3125 -5.695312 31.210938 -3.644531 29.015625 -2.1875 C 26.828125 -0.726562 23.65625 0 19.5 0 L 2.46875 0 L 2.46875 -30.28125 L 18.640625 -30.28125 C 22.679688 -30.28125 25.726562 -29.554688 27.78125 -28.109375 C 29.84375 -26.671875 30.875 -24.753906 30.875 -22.359375 C 30.875 -20.941406 30.519531 -19.671875 29.8125 -18.546875 C 29.113281 -17.429688 28.070312 -16.523438 26.6875 -15.828125 Z M 12.5 -23.140625 L 12.5 -18.640625 L 17.25 -18.640625 C 19.476562 -18.640625 20.59375 -19.390625 20.59375 -20.890625 C 20.59375 -22.390625 19.476562 -23.140625 17.25 -23.140625 Z M 18.640625 -7.140625 C 20.890625 -7.140625 22.015625 -7.929688 22.015625 -9.515625 C 22.015625 -11.097656 20.890625 -11.890625 18.640625 -11.890625 L 12.5 -11.890625 L 12.5 -7.140625 Z M 18.640625 -7.140625 "/></g></g></g><g fill="#5e17eb" fill-opacity="1"><g transform="translate(68.486247, 43.4913)"><g><path d="M 18.34375 0.6875 C 15.082031 0.6875 12.15625 0.0078125 9.5625 -1.34375 C 6.96875 -2.695312 4.929688 -4.578125 3.453125 -6.984375 C 1.984375 -9.390625 1.25 -12.109375 1.25 -15.140625 C 1.25 -18.160156 1.984375 -20.875 3.453125 -23.28125 C 4.929688 -25.695312 6.96875 -27.582031 9.5625 -28.9375 C 12.15625 -30.289062 15.082031 -30.96875 18.34375 -30.96875 C 21.59375 -30.96875 24.515625 -30.289062 27.109375 -28.9375 C 29.710938 -27.582031 31.75 -25.695312 33.21875 -23.28125 C 34.6875 -20.875 35.421875 -18.160156 35.421875 -15.140625 C 35.421875 -12.109375 34.6875 -9.390625 33.21875 -6.984375 C 31.75 -4.578125 29.710938 -2.695312 27.109375 -1.34375 C 24.515625 0.0078125 21.59375 0.6875 18.34375 0.6875 Z M 18.34375 -7.5625 C 19.601562 -7.5625 20.742188 -7.867188 21.765625 -8.484375 C 22.796875 -9.109375 23.613281 -9.988281 24.21875 -11.125 C 24.820312 -12.269531 25.125 -13.609375 25.125 -15.140625 C 25.125 -16.671875 24.820312 -18.003906 24.21875 -19.140625 C 23.613281 -20.273438 22.796875 -21.148438 21.765625 -21.765625 C 20.742188 -22.390625 19.601562 -22.703125 18.34375 -22.703125 C 17.070312 -22.703125 15.921875 -22.390625 14.890625 -21.765625 C 13.867188 -21.148438 13.054688 -20.273438 12.453125 -19.140625 C 11.847656 -18.003906 11.546875 -16.671875 11.546875 -15.140625 C 11.546875 -13.609375 11.847656 -12.269531 12.453125 -11.125 C 13.054688 -9.988281 13.867188 -9.109375 14.890625 -8.484375 C 15.921875 -7.867188 17.070312 -7.5625 18.34375 -7.5625 Z M 18.34375 -7.5625 "/></g></g></g><g fill="#5e17eb" fill-opacity="1"><g transform="translate(105.154241, 43.4913)"><g><path d="M 15.4375 -7.609375 L 12.671875 -7.609375 L 12.671875 0 L 2.46875 0 L 2.46875 -30.28125 L 17.046875 -30.28125 C 19.835938 -30.28125 22.269531 -29.816406 24.34375 -28.890625 C 26.425781 -27.960938 28.03125 -26.632812 29.15625 -24.90625 C 30.28125 -23.175781 30.84375 -21.160156 30.84375 -18.859375 C 30.84375 -16.691406 30.347656 -14.800781 29.359375 -13.1875 C 28.378906 -11.570312 26.96875 -10.289062 25.125 -9.34375 L 31.484375 0 L 20.59375 0 Z M 20.546875 -18.859375 C 20.546875 -19.984375 20.195312 -20.851562 19.5 -21.46875 C 18.8125 -22.09375 17.773438 -22.40625 16.390625 -22.40625 L 12.671875 -22.40625 L 12.671875 -15.3125 L 16.390625 -15.3125 C 17.773438 -15.3125 18.8125 -15.617188 19.5 -16.234375 C 20.195312 -16.859375 20.546875 -17.734375 20.546875 -18.859375 Z M 20.546875 -18.859375 "/></g></g></g><g fill="#5e17eb" fill-opacity="1"><g transform="translate(137.368454, 43.4913)"><g><path d="M 27.640625 -7.703125 L 27.640625 0 L 2.46875 0 L 2.46875 -30.28125 L 27.078125 -30.28125 L 27.078125 -22.578125 L 12.5 -22.578125 L 12.5 -19.03125 L 25.296875 -19.03125 L 25.296875 -11.671875 L 12.5 -11.671875 L 12.5 -7.703125 Z M 27.640625 -7.703125 "/></g></g></g><g fill="#5e17eb" fill-opacity="1"><g transform="translate(166.469347, 43.4913)"><g><path d="M 13.75 0.6875 C 11.238281 0.6875 8.796875 0.40625 6.421875 -0.15625 C 4.046875 -0.71875 2.09375 -1.472656 0.5625 -2.421875 L 3.84375 -9.859375 C 5.289062 -9.023438 6.90625 -8.351562 8.6875 -7.84375 C 10.476562 -7.34375 12.195312 -7.09375 13.84375 -7.09375 C 15.25 -7.09375 16.253906 -7.226562 16.859375 -7.5 C 17.472656 -7.78125 17.78125 -8.191406 17.78125 -8.734375 C 17.78125 -9.367188 17.378906 -9.84375 16.578125 -10.15625 C 15.785156 -10.476562 14.484375 -10.828125 12.671875 -11.203125 C 10.335938 -11.691406 8.390625 -12.21875 6.828125 -12.78125 C 5.273438 -13.34375 3.921875 -14.265625 2.765625 -15.546875 C 1.609375 -16.828125 1.03125 -18.566406 1.03125 -20.765625 C 1.03125 -22.660156 1.5625 -24.382812 2.625 -25.9375 C 3.695312 -27.5 5.289062 -28.726562 7.40625 -29.625 C 9.53125 -30.519531 12.109375 -30.96875 15.140625 -30.96875 C 17.210938 -30.96875 19.25 -30.742188 21.25 -30.296875 C 23.257812 -29.847656 25.03125 -29.191406 26.5625 -28.328125 L 23.484375 -20.9375 C 20.515625 -22.4375 17.703125 -23.1875 15.046875 -23.1875 C 12.421875 -23.1875 11.109375 -22.550781 11.109375 -21.28125 C 11.109375 -20.675781 11.5 -20.222656 12.28125 -19.921875 C 13.0625 -19.617188 14.34375 -19.289062 16.125 -18.9375 C 18.4375 -18.507812 20.382812 -18.015625 21.96875 -17.453125 C 23.550781 -16.890625 24.925781 -15.972656 26.09375 -14.703125 C 27.269531 -13.429688 27.859375 -11.703125 27.859375 -9.515625 C 27.859375 -7.609375 27.320312 -5.882812 26.25 -4.34375 C 25.1875 -2.800781 23.59375 -1.578125 21.46875 -0.671875 C 19.351562 0.234375 16.78125 0.6875 13.75 0.6875 Z M 13.75 0.6875 "/></g></g></g></svg>