<?xml version="1.0" standalone="no"?>
<!DOCTYPE svg PUBLIC "-//W3C//DTD SVG 20010904//EN"
 "http://www.w3.org/TR/2001/REC-SVG-20010904/DTD/svg10.dtd">
<svg version="1.0" xmlns="http://www.w3.org/2000/svg"
 width="403.000000pt" height="148.000000pt" viewBox="0 0 403.000000 148.000000"
 preserveAspectRatio="xMidYMid meet">

<g transform="translate(0.000000,148.000000) scale(0.100000,-0.100000)"
fill="#000000" stroke="none">
<path d="M462 1377 c-16 -19 -164 -547 -158 -563 4 -11 60 -14 295 -14 266 0
291 1 300 18 19 37 154 541 148 556 -6 14 -38 16 -290 16 -221 0 -287 -3 -295
-13z m248 -69 c44 -49 63 -115 58 -208 -3 -70 -11 -101 -22 -89 -2 2 0 27 4
54 11 62 -5 161 -31 204 -15 25 -24 30 -42 26 -25 -7 -53 17 -42 35 12 20 45
10 75 -22z m-100 -58 c0 -5 -20 -10 -45 -10 -55 0 -82 -30 -65 -74 l10 -27 53
40 c55 42 114 71 144 71 25 0 5 -14 -49 -34 -88 -32 -195 -153 -152 -170 23
-9 13 -51 -11 -51 -17 0 -20 6 -18 43 1 24 9 55 19 69 15 24 15 27 0 35 -17 9
-22 64 -8 84 19 29 122 49 122 24z m214 -11 c16 -13 26 -30 26 -47 0 -29 -37
-98 -47 -88 -3 3 2 17 11 31 10 15 16 40 14 58 -2 26 -9 34 -35 42 -18 5 -33
13 -33 17 0 15 38 8 64 -13z m-136 -116 c5 -17 -26 -29 -40 -15 -6 6 -7 15 -3
22 9 14 37 9 43 -7z m-115 -48 c48 -41 132 -75 188 -75 33 0 41 4 49 26 13 33
45 29 45 -6 0 -22 -6 -26 -50 -33 -82 -14 -198 27 -259 92 -40 42 -24 39 27
-4z m32 -95 c9 -17 27 -36 41 -42 20 -10 29 -8 54 11 33 24 40 18 13 -11 -26
-29 -77 -23 -107 13 -14 17 -26 37 -26 45 0 22 8 17 25 -16z"/>
<path d="M650 1320 c0 -5 7 -10 16 -10 8 0 12 5 9 10 -3 6 -10 10 -16 10 -5 0
-9 -4 -9 -10z"/>
<path d="M480 1020 c0 -5 5 -10 10 -10 6 0 10 5 10 10 0 6 -4 10 -10 10 -5 0
-10 -4 -10 -10z"/>
<path d="M825 1020 c-3 -5 1 -10 9 -10 9 0 16 5 16 10 0 6 -4 10 -9 10 -6 0
-13 -4 -16 -10z"/>
<path d="M1596 1132 c-5 -9 -76 -564 -76 -598 0 -14 20 -15 153 -12 135 3 157
6 200 26 103 51 138 210 60 272 -25 20 -26 21 -7 35 10 8 23 15 27 15 15 0 47
85 47 127 0 57 -16 89 -59 116 -32 20 -52 22 -187 25 -90 2 -154 0 -158 -6z
m266 -119 c24 -21 23 -64 -3 -97 -19 -24 -26 -26 -100 -26 l-80 0 6 38 c3 20
8 52 11 70 l5 32 71 0 c52 0 76 -4 90 -17z m-27 -247 c30 -22 26 -83 -9 -112
-23 -21 -38 -24 -102 -24 l-75 0 6 58 c11 96 7 92 89 92 46 0 79 -5 91 -14z"/>
<path d="M1050 1108 c-23 -54 -79 -278 -74 -293 5 -13 28 -15 167 -13 l161 3
43 148 c23 82 39 155 36 163 -4 11 -35 14 -164 14 -156 0 -160 -1 -169 -22z"/>
<path d="M2210 967 c-50 -16 -114 -84 -133 -142 -25 -72 -22 -180 6 -229 64
-112 255 -104 333 14 83 125 68 292 -31 347 -44 25 -115 29 -175 10z m123
-119 c33 -39 17 -153 -28 -202 -29 -32 -76 -35 -105 -6 -26 26 -28 126 -4 176
30 63 97 79 137 32z"/>
<path d="M2726 955 c-35 -23 -36 -24 -36 -4 0 18 -5 20 -57 17 l-58 -3 -26
-215 c-15 -118 -25 -218 -22 -222 2 -5 28 -8 57 -8 62 0 56 -14 77 170 11 93
16 108 40 133 22 21 37 27 72 27 l44 0 15 54 c10 39 12 58 5 65 -19 19 -73 12
-111 -14z"/>
<path d="M3005 962 c-87 -42 -137 -131 -138 -247 -1 -130 64 -200 184 -199 60
1 132 29 164 64 17 18 17 21 1 45 -23 35 -43 41 -66 20 -11 -10 -42 -20 -69
-23 -43 -4 -53 -1 -75 21 -14 15 -26 35 -26 46 0 19 7 21 143 23 l142 3 0 70
c0 80 -23 136 -68 169 -39 29 -139 33 -192 8z m119 -103 c15 -12 26 -30 26
-45 0 -23 -2 -24 -75 -24 -66 0 -75 2 -75 18 0 28 49 69 86 71 6 1 23 -8 38
-20z"/>
<path d="M273 702 c-7 -4 -31 -74 -53 -155 -33 -118 -39 -151 -30 -163 17 -19
302 -21 318 -1 6 7 29 78 52 157 38 135 39 146 23 157 -19 14 -289 18 -310 5z"/>
<path d="M677 696 c-12 -13 -42 -111 -142 -472 -13 -45 -20 -86 -16 -93 5 -8
87 -11 301 -9 l294 3 78 279 c61 215 76 281 67 292 -17 21 -561 20 -582 0z"/>
<path d="M2120 305 l0 -115 81 0 c71 0 80 2 77 18 -2 13 -15 18 -61 20 -56 3
-57 4 -57 32 0 28 2 30 40 30 54 0 56 27 3 32 -33 3 -38 7 -41 30 -3 26 -2 27
55 30 46 2 59 7 61 21 3 15 -6 17 -77 17 l-81 0 0 -115z"/>
<path d="M2660 305 c0 -108 1 -115 20 -115 17 0 20 7 20 53 0 60 10 80 36 75
16 -3 20 -14 22 -66 3 -54 6 -62 22 -62 18 0 20 7 20 75 0 65 -3 76 -21 86
-12 6 -34 8 -50 5 -28 -5 -29 -4 -29 29 0 28 -4 35 -20 35 -19 0 -20 -7 -20
-115z"/>
<path d="M2312 338 c43 -67 43 -62 14 -104 l-26 -39 22 -3 c13 -3 28 5 40 20
l19 23 16 -23 c9 -12 26 -22 40 -22 l24 0 -26 37 c-14 21 -25 42 -25 48 0 6
11 27 25 48 l26 37 -24 0 c-15 0 -31 -10 -41 -26 l-17 -25 -20 25 c-11 14 -30
26 -41 26 -19 0 -19 -2 -6 -22z"/>
<path d="M2509 341 c-34 -28 -34 -104 0 -132 28 -23 69 -24 99 -3 42 29 18 60
-27 32 -30 -18 -51 -3 -51 37 0 40 21 55 51 37 45 -28 69 3 27 32 -30 21 -71
20 -99 -3z"/>
<path d="M2862 344 c-35 -24 -26 -35 24 -32 31 2 48 -1 51 -9 3 -9 -7 -13 -31
-13 -37 0 -76 -28 -76 -54 0 -31 29 -45 90 -44 l60 1 0 63 c0 51 -4 68 -20 84
-24 24 -67 26 -98 4z m78 -93 c0 -15 -29 -33 -45 -27 -28 10 -17 36 15 36 17
0 30 -4 30 -9z"/>
<path d="M3020 275 c0 -78 2 -85 20 -85 16 0 19 8 22 62 2 52 6 63 22 66 26 5
36 -15 36 -75 0 -46 3 -53 20 -53 18 0 20 7 20 68 0 54 -4 72 -18 85 -22 20
-53 22 -70 5 -9 -9 -12 -9 -12 0 0 7 -9 12 -20 12 -18 0 -20 -7 -20 -85z"/>
<path d="M3210 333 c-22 -28 -26 -73 -9 -104 14 -27 55 -42 80 -29 15 9 19 7
19 -5 0 -17 -38 -35 -57 -28 -8 3 -13 -3 -13 -16 0 -17 6 -21 35 -21 61 0 75
25 75 134 l0 93 -55 1 c-47 0 -58 -3 -75 -25z m85 -58 c0 -35 -3 -40 -24 -40
-28 0 -42 30 -30 63 6 17 15 22 31 20 20 -3 23 -9 23 -43z"/>
<path d="M3400 340 c-14 -14 -20 -33 -20 -65 0 -56 25 -85 73 -85 34 1 76 25
63 37 -4 5 -26 8 -48 8 -24 0 -43 5 -45 13 -3 9 11 12 51 12 60 0 62 1 45 49
-19 53 -81 69 -119 31z m78 -37 c2 -9 -7 -13 -27 -13 -30 0 -39 9 -24 24 11
10 46 3 51 -11z"/>
</g>
</svg>
