<svg xmlns="http://www.w3.org/2000/svg" xmlns:xlink="http://www.w3.org/1999/xlink" width="120" zoomAndPan="magnify" viewBox="0 0 90 67.499998" height="90" preserveAspectRatio="xMidYMid meet" version="1.0"><defs><g/><clipPath id="2c1a375fc7"><path d="M 15.566406 25.492188 L 32.6875 25.492188 L 32.6875 43.359375 L 15.566406 43.359375 Z M 15.566406 25.492188 " clip-rule="nonzero"/></clipPath><clipPath id="24639ab781"><path d="M 25.253906 33.738281 L 17.726562 33.738281 C 17.433594 33.738281 17.222656 33.460938 17.300781 33.179688 L 19.367188 25.8125 C 19.421875 25.621094 19.59375 25.492188 19.792969 25.492188 L 27.320312 25.492188 C 27.613281 25.492188 27.824219 25.769531 27.746094 26.050781 L 25.679688 33.417969 C 25.625 33.609375 25.453125 33.738281 25.253906 33.738281 Z M 20.363281 39.300781 L 21.429688 35.507812 C 21.507812 35.226562 21.296875 34.945312 21.003906 34.945312 L 17.132812 34.945312 C 16.9375 34.945312 16.765625 35.078125 16.710938 35.269531 L 15.644531 39.0625 C 15.566406 39.34375 15.777344 39.621094 16.070312 39.621094 L 19.941406 39.621094 C 20.136719 39.621094 20.3125 39.488281 20.363281 39.300781 Z M 22.324219 35.269531 L 20.257812 42.632812 C 20.175781 42.914062 20.390625 43.195312 20.679688 43.195312 L 28.210938 43.195312 C 28.40625 43.195312 28.582031 43.0625 28.632812 42.871094 L 30.699219 35.507812 C 30.78125 35.226562 30.570312 34.945312 30.277344 34.945312 L 22.746094 34.945312 C 22.550781 34.945312 22.375 35.078125 22.324219 35.269531 Z M 27.636719 29.386719 L 26.574219 33.179688 C 26.496094 33.460938 26.707031 33.738281 26.996094 33.738281 L 30.867188 33.738281 C 31.066406 33.738281 31.238281 33.609375 31.292969 33.417969 L 32.355469 29.625 C 32.4375 29.34375 32.222656 29.066406 31.933594 29.066406 L 28.0625 29.066406 C 27.863281 29.066406 27.691406 29.195312 27.636719 29.386719 Z M 27.636719 29.386719 " clip-rule="nonzero"/></clipPath><linearGradient x1="114.296457" gradientTransform="matrix(0.0354056, 0, 0, 0.0354056, 15.629441, 25.491532)" y1="-47.633933" x2="358.621853" gradientUnits="userSpaceOnUse" y2="547.634025" id="02950fcad6"><stop stop-opacity="1" stop-color="rgb(16.499329%, 28.199768%, 63.899231%)" offset="0"/><stop stop-opacity="1" stop-color="rgb(16.499329%, 28.199768%, 63.899231%)" offset="0.0625"/><stop stop-opacity="1" stop-color="rgb(16.482544%, 28.17688%, 63.859558%)" offset="0.09375"/><stop stop-opacity="1" stop-color="rgb(16.419983%, 28.091431%, 63.711548%)" offset="0.101563"/><stop stop-opacity="1" stop-color="rgb(16.326904%, 27.967834%, 63.496399%)" offset="0.109375"/><stop stop-opacity="1" stop-color="rgb(16.235352%, 27.844238%, 63.28125%)" offset="0.117188"/><stop stop-opacity="1" stop-color="rgb(16.143799%, 27.720642%, 63.066101%)" offset="0.125"/><stop stop-opacity="1" stop-color="rgb(16.052246%, 27.598572%, 62.850952%)" offset="0.132813"/><stop stop-opacity="1" stop-color="rgb(15.960693%, 27.474976%, 62.635803%)" offset="0.140625"/><stop stop-opacity="1" stop-color="rgb(15.869141%, 27.351379%, 62.420654%)" offset="0.148438"/><stop stop-opacity="1" stop-color="rgb(15.777588%, 27.227783%, 62.205505%)" offset="0.15625"/><stop stop-opacity="1" stop-color="rgb(15.686035%, 27.104187%, 61.991882%)" offset="0.164063"/><stop stop-opacity="1" stop-color="rgb(15.594482%, 26.982117%, 61.776733%)" offset="0.171875"/><stop stop-opacity="1" stop-color="rgb(15.50293%, 26.858521%, 61.561584%)" offset="0.179688"/><stop stop-opacity="1" stop-color="rgb(15.411377%, 26.734924%, 61.346436%)" offset="0.1875"/><stop stop-opacity="1" stop-color="rgb(15.318298%, 26.611328%, 61.131287%)" offset="0.195313"/><stop stop-opacity="1" stop-color="rgb(15.226746%, 26.487732%, 60.916138%)" offset="0.203125"/><stop stop-opacity="1" stop-color="rgb(15.135193%, 26.364136%, 60.700989%)" offset="0.210938"/><stop stop-opacity="1" stop-color="rgb(15.04364%, 26.242065%, 60.48584%)" offset="0.21875"/><stop stop-opacity="1" stop-color="rgb(14.952087%, 26.118469%, 60.270691%)" offset="0.226562"/><stop stop-opacity="1" stop-color="rgb(14.860535%, 25.994873%, 60.055542%)" offset="0.234375"/><stop stop-opacity="1" stop-color="rgb(14.768982%, 25.871277%, 59.840393%)" offset="0.242188"/><stop stop-opacity="1" stop-color="rgb(14.677429%, 25.747681%, 59.625244%)" offset="0.25"/><stop stop-opacity="1" stop-color="rgb(14.585876%, 25.624084%, 59.411621%)" offset="0.257812"/><stop stop-opacity="1" stop-color="rgb(14.494324%, 25.502014%, 59.196472%)" offset="0.265625"/><stop stop-opacity="1" stop-color="rgb(14.401245%, 25.378418%, 58.981323%)" offset="0.273438"/><stop stop-opacity="1" stop-color="rgb(14.309692%, 25.254822%, 58.766174%)" offset="0.281145"/><stop stop-opacity="1" stop-color="rgb(14.263916%, 25.193787%, 58.659363%)" offset="0.28125"/><stop stop-opacity="1" stop-color="rgb(14.21814%, 25.131226%, 58.551025%)" offset="0.289063"/><stop stop-opacity="1" stop-color="rgb(14.126587%, 25.007629%, 58.335876%)" offset="0.296875"/><stop stop-opacity="1" stop-color="rgb(14.035034%, 24.885559%, 58.120728%)" offset="0.304688"/><stop stop-opacity="1" stop-color="rgb(13.943481%, 24.761963%, 57.905579%)" offset="0.3125"/><stop stop-opacity="1" stop-color="rgb(13.851929%, 24.638367%, 57.69043%)" offset="0.320312"/><stop stop-opacity="1" stop-color="rgb(13.760376%, 24.514771%, 57.475281%)" offset="0.328125"/><stop stop-opacity="1" stop-color="rgb(13.668823%, 24.391174%, 57.260132%)" offset="0.335938"/><stop stop-opacity="1" stop-color="rgb(13.577271%, 24.267578%, 57.044983%)" offset="0.34375"/><stop stop-opacity="1" stop-color="rgb(13.484192%, 24.145508%, 56.829834%)" offset="0.351563"/><stop stop-opacity="1" stop-color="rgb(13.392639%, 24.021912%, 56.616211%)" offset="0.359375"/><stop stop-opacity="1" stop-color="rgb(13.301086%, 23.898315%, 56.401062%)" offset="0.367188"/><stop stop-opacity="1" stop-color="rgb(13.209534%, 23.774719%, 56.185913%)" offset="0.375"/><stop stop-opacity="1" stop-color="rgb(13.117981%, 23.651123%, 55.970764%)" offset="0.382813"/><stop stop-opacity="1" stop-color="rgb(13.026428%, 23.529053%, 55.755615%)" offset="0.390625"/><stop stop-opacity="1" stop-color="rgb(12.934875%, 23.405457%, 55.540466%)" offset="0.398438"/><stop stop-opacity="1" stop-color="rgb(12.843323%, 23.28186%, 55.325317%)" offset="0.40625"/><stop stop-opacity="1" stop-color="rgb(12.75177%, 23.158264%, 55.110168%)" offset="0.414063"/><stop stop-opacity="1" stop-color="rgb(12.660217%, 23.034668%, 54.89502%)" offset="0.421875"/><stop stop-opacity="1" stop-color="rgb(12.567139%, 22.911072%, 54.679871%)" offset="0.429688"/><stop stop-opacity="1" stop-color="rgb(12.475586%, 22.789001%, 54.464722%)" offset="0.4375"/><stop stop-opacity="1" stop-color="rgb(12.384033%, 22.665405%, 54.249573%)" offset="0.445313"/><stop stop-opacity="1" stop-color="rgb(12.29248%, 22.541809%, 54.03595%)" offset="0.453125"/><stop stop-opacity="1" stop-color="rgb(12.200928%, 22.418213%, 53.820801%)" offset="0.460938"/><stop stop-opacity="1" stop-color="rgb(12.109375%, 22.294617%, 53.605652%)" offset="0.46875"/><stop stop-opacity="1" stop-color="rgb(12.017822%, 22.171021%, 53.390503%)" offset="0.476563"/><stop stop-opacity="1" stop-color="rgb(11.92627%, 22.04895%, 53.175354%)" offset="0.484375"/><stop stop-opacity="1" stop-color="rgb(11.834717%, 21.925354%, 52.960205%)" offset="0.492188"/><stop stop-opacity="1" stop-color="rgb(11.743164%, 21.801758%, 52.745056%)" offset="0.5"/><stop stop-opacity="1" stop-color="rgb(11.651611%, 21.678162%, 52.529907%)" offset="0.507813"/><stop stop-opacity="1" stop-color="rgb(11.558533%, 21.554565%, 52.314758%)" offset="0.515625"/><stop stop-opacity="1" stop-color="rgb(11.46698%, 21.432495%, 52.099609%)" offset="0.523438"/><stop stop-opacity="1" stop-color="rgb(11.375427%, 21.308899%, 51.88446%)" offset="0.53125"/><stop stop-opacity="1" stop-color="rgb(11.283875%, 21.185303%, 51.669312%)" offset="0.539062"/><stop stop-opacity="1" stop-color="rgb(11.192322%, 21.061707%, 51.455688%)" offset="0.546875"/><stop stop-opacity="1" stop-color="rgb(11.100769%, 20.93811%, 51.24054%)" offset="0.554688"/><stop stop-opacity="1" stop-color="rgb(11.009216%, 20.814514%, 51.025391%)" offset="0.5625"/><stop stop-opacity="1" stop-color="rgb(10.917664%, 20.692444%, 50.810242%)" offset="0.570313"/><stop stop-opacity="1" stop-color="rgb(10.826111%, 20.568848%, 50.595093%)" offset="0.578125"/><stop stop-opacity="1" stop-color="rgb(10.734558%, 20.445251%, 50.379944%)" offset="0.585938"/><stop stop-opacity="1" stop-color="rgb(10.641479%, 20.321655%, 50.164795%)" offset="0.59375"/><stop stop-opacity="1" stop-color="rgb(10.549927%, 20.198059%, 49.949646%)" offset="0.601563"/><stop stop-opacity="1" stop-color="rgb(10.458374%, 20.075989%, 49.734497%)" offset="0.609375"/><stop stop-opacity="1" stop-color="rgb(10.366821%, 19.952393%, 49.519348%)" offset="0.617188"/><stop stop-opacity="1" stop-color="rgb(10.275269%, 19.828796%, 49.304199%)" offset="0.625"/><stop stop-opacity="1" stop-color="rgb(10.183716%, 19.7052%, 49.08905%)" offset="0.632813"/><stop stop-opacity="1" stop-color="rgb(10.092163%, 19.581604%, 48.873901%)" offset="0.640625"/><stop stop-opacity="1" stop-color="rgb(10.00061%, 19.458008%, 48.660278%)" offset="0.648438"/><stop stop-opacity="1" stop-color="rgb(9.909058%, 19.335938%, 48.445129%)" offset="0.65625"/><stop stop-opacity="1" stop-color="rgb(9.817505%, 19.212341%, 48.22998%)" offset="0.664063"/><stop stop-opacity="1" stop-color="rgb(9.724426%, 19.088745%, 48.014832%)" offset="0.671875"/><stop stop-opacity="1" stop-color="rgb(9.632874%, 18.965149%, 47.799683%)" offset="0.679688"/><stop stop-opacity="1" stop-color="rgb(9.541321%, 18.841553%, 47.584534%)" offset="0.6875"/><stop stop-opacity="1" stop-color="rgb(9.449768%, 18.717957%, 47.369385%)" offset="0.695313"/><stop stop-opacity="1" stop-color="rgb(9.358215%, 18.595886%, 47.154236%)" offset="0.703125"/><stop stop-opacity="1" stop-color="rgb(9.266663%, 18.47229%, 46.939087%)" offset="0.710938"/><stop stop-opacity="1" stop-color="rgb(9.17511%, 18.348694%, 46.723938%)" offset="0.71875"/><stop stop-opacity="1" stop-color="rgb(9.083557%, 18.225098%, 46.508789%)" offset="0.718855"/><stop stop-opacity="1" stop-color="rgb(9.037781%, 18.164062%, 46.401978%)" offset="0.726563"/><stop stop-opacity="1" stop-color="rgb(8.992004%, 18.101501%, 46.29364%)" offset="0.734375"/><stop stop-opacity="1" stop-color="rgb(8.900452%, 17.979431%, 46.080017%)" offset="0.742188"/><stop stop-opacity="1" stop-color="rgb(8.807373%, 17.855835%, 45.864868%)" offset="0.75"/><stop stop-opacity="1" stop-color="rgb(8.71582%, 17.732239%, 45.649719%)" offset="0.757813"/><stop stop-opacity="1" stop-color="rgb(8.624268%, 17.608643%, 45.43457%)" offset="0.765625"/><stop stop-opacity="1" stop-color="rgb(8.532715%, 17.485046%, 45.219421%)" offset="0.773438"/><stop stop-opacity="1" stop-color="rgb(8.441162%, 17.36145%, 45.004272%)" offset="0.78125"/><stop stop-opacity="1" stop-color="rgb(8.349609%, 17.23938%, 44.789124%)" offset="0.789063"/><stop stop-opacity="1" stop-color="rgb(8.258057%, 17.115784%, 44.573975%)" offset="0.796875"/><stop stop-opacity="1" stop-color="rgb(8.166504%, 16.992188%, 44.358826%)" offset="0.804688"/><stop stop-opacity="1" stop-color="rgb(8.074951%, 16.868591%, 44.143677%)" offset="0.8125"/><stop stop-opacity="1" stop-color="rgb(7.983398%, 16.744995%, 43.928528%)" offset="0.820312"/><stop stop-opacity="1" stop-color="rgb(7.89032%, 16.622925%, 43.713379%)" offset="0.828125"/><stop stop-opacity="1" stop-color="rgb(7.821655%, 16.529846%, 43.553162%)" offset="0.84375"/><stop stop-opacity="1" stop-color="rgb(7.798767%, 16.499329%, 43.499756%)" offset="0.875"/><stop stop-opacity="1" stop-color="rgb(7.798767%, 16.499329%, 43.499756%)" offset="1"/></linearGradient><clipPath id="e39677bdf8"><path d="M 19.570312 27 L 24.78125 27 L 24.78125 32 L 19.570312 32 Z M 19.570312 27 " clip-rule="nonzero"/></clipPath><clipPath id="66b93c091c"><path d="M 21 26.128906 L 24.78125 26.128906 L 24.78125 32.082031 L 21 32.082031 Z M 21 26.128906 " clip-rule="nonzero"/></clipPath><clipPath id="02d3606a80"><path d="M 19.570312 26.128906 L 23 26.128906 L 23 32 L 19.570312 32 Z M 19.570312 26.128906 " clip-rule="nonzero"/></clipPath></defs><g clip-path="url(#2c1a375fc7)"><g clip-path="url(#24639ab781)"><path fill="url(#02950fcad6)" d="M 15.566406 25.492188 L 15.566406 43.195312 L 32.4375 43.195312 L 32.4375 25.492188 Z M 15.566406 25.492188 " fill-rule="nonzero"/></g></g><g fill="#142a6f" fill-opacity="1"><g transform="translate(39.258022, 37.551749)"><g><path d="M 5.96875 -4.484375 C 5.945312 -4.472656 5.9375 -4.457031 5.9375 -4.4375 C 5.9375 -4.414062 5.941406 -4.394531 5.953125 -4.375 C 6.554688 -4.039062 6.859375 -3.507812 6.859375 -2.78125 C 6.859375 -2.707031 6.851562 -2.578125 6.84375 -2.390625 C 6.738281 -1.609375 6.398438 -1.015625 5.828125 -0.609375 C 5.253906 -0.203125 4.546875 0 3.703125 0 L 0.6875 0 C 0.550781 0 0.492188 -0.0664062 0.515625 -0.203125 L 1.515625 -8.359375 C 1.535156 -8.492188 1.609375 -8.5625 1.734375 -8.5625 L 4.65625 -8.5625 C 6.351562 -8.5625 7.203125 -7.921875 7.203125 -6.640625 C 7.203125 -6.453125 7.195312 -6.3125 7.1875 -6.21875 C 7.09375 -5.394531 6.6875 -4.816406 5.96875 -4.484375 Z M 3.09375 -7.078125 C 3.039062 -7.078125 3.015625 -7.054688 3.015625 -7.015625 L 2.796875 -5.125 C 2.785156 -5.070312 2.800781 -5.046875 2.84375 -5.046875 L 4.234375 -5.046875 C 4.597656 -5.046875 4.894531 -5.132812 5.125 -5.3125 C 5.351562 -5.488281 5.488281 -5.738281 5.53125 -6.0625 L 5.546875 -6.203125 C 5.546875 -6.484375 5.453125 -6.695312 5.265625 -6.84375 C 5.078125 -7 4.816406 -7.078125 4.484375 -7.078125 Z M 3.890625 -1.5 C 4.285156 -1.5 4.597656 -1.609375 4.828125 -1.828125 C 5.066406 -2.054688 5.1875 -2.363281 5.1875 -2.75 C 5.1875 -3.039062 5.09375 -3.257812 4.90625 -3.40625 C 4.726562 -3.5625 4.472656 -3.640625 4.140625 -3.640625 L 2.671875 -3.640625 C 2.640625 -3.640625 2.613281 -3.617188 2.59375 -3.578125 L 2.34375 -1.5625 C 2.34375 -1.519531 2.363281 -1.5 2.40625 -1.5 Z M 3.890625 -1.5 "/></g></g></g><g fill="#142a6f" fill-opacity="1"><g transform="translate(46.611732, 37.551749)"><g><path d="M 3.078125 0.09375 C 2.398438 0.09375 1.84375 -0.0820312 1.40625 -0.4375 C 0.976562 -0.800781 0.71875 -1.289062 0.625 -1.90625 C 0.59375 -2.082031 0.578125 -2.296875 0.578125 -2.546875 C 0.578125 -2.742188 0.585938 -2.945312 0.609375 -3.15625 C 0.671875 -3.675781 0.785156 -4.109375 0.953125 -4.453125 C 1.203125 -5.054688 1.582031 -5.53125 2.09375 -5.875 C 2.613281 -6.21875 3.207031 -6.390625 3.875 -6.390625 C 4.53125 -6.390625 5.066406 -6.21875 5.484375 -5.875 C 5.898438 -5.53125 6.164062 -5.0625 6.28125 -4.46875 C 6.320312 -4.21875 6.34375 -3.976562 6.34375 -3.75 C 6.34375 -3.5625 6.328125 -3.375 6.296875 -3.1875 C 6.253906 -2.789062 6.15625 -2.375 6 -1.9375 C 5.738281 -1.300781 5.347656 -0.800781 4.828125 -0.4375 C 4.316406 -0.0820312 3.734375 0.09375 3.078125 0.09375 Z M 3.25 -1.375 C 3.507812 -1.375 3.738281 -1.457031 3.9375 -1.625 C 4.132812 -1.789062 4.296875 -2.015625 4.421875 -2.296875 C 4.503906 -2.515625 4.566406 -2.800781 4.609375 -3.15625 C 4.640625 -3.351562 4.65625 -3.535156 4.65625 -3.703125 C 4.65625 -4.078125 4.566406 -4.367188 4.390625 -4.578125 C 4.222656 -4.796875 3.976562 -4.90625 3.65625 -4.90625 C 3.394531 -4.90625 3.164062 -4.828125 2.96875 -4.671875 C 2.769531 -4.515625 2.613281 -4.300781 2.5 -4.03125 C 2.40625 -3.789062 2.335938 -3.5 2.296875 -3.15625 C 2.273438 -2.976562 2.265625 -2.800781 2.265625 -2.625 C 2.265625 -2.238281 2.347656 -1.929688 2.515625 -1.703125 C 2.679688 -1.484375 2.925781 -1.375 3.25 -1.375 Z M 3.25 -1.375 "/></g></g></g><g fill="#142a6f" fill-opacity="1"><g transform="translate(53.219058, 37.551749)"><g><path d="M 4.203125 -6.375 C 4.453125 -6.375 4.65625 -6.328125 4.8125 -6.234375 C 4.875 -6.191406 4.90625 -6.140625 4.90625 -6.078125 C 4.90625 -6.054688 4.894531 -6.019531 4.875 -5.96875 L 4.5 -4.6875 C 4.488281 -4.625 4.460938 -4.582031 4.421875 -4.5625 C 4.390625 -4.539062 4.332031 -4.535156 4.25 -4.546875 C 4.125 -4.578125 4.015625 -4.59375 3.921875 -4.59375 C 3.859375 -4.59375 3.765625 -4.585938 3.640625 -4.578125 C 3.347656 -4.546875 3.085938 -4.429688 2.859375 -4.234375 C 2.640625 -4.046875 2.515625 -3.796875 2.484375 -3.484375 L 2.078125 -0.203125 C 2.066406 -0.0664062 1.988281 0 1.84375 0 L 0.59375 0 C 0.445312 0 0.382812 -0.0664062 0.40625 -0.203125 L 1.125 -6.078125 C 1.144531 -6.210938 1.222656 -6.28125 1.359375 -6.28125 L 2.625 -6.28125 C 2.757812 -6.28125 2.816406 -6.210938 2.796875 -6.078125 L 2.75 -5.703125 C 2.738281 -5.671875 2.742188 -5.648438 2.765625 -5.640625 C 2.785156 -5.628906 2.804688 -5.640625 2.828125 -5.671875 C 3.203125 -6.140625 3.660156 -6.375 4.203125 -6.375 Z M 4.203125 -6.375 "/></g></g></g><g fill="#142a6f" fill-opacity="1"><g transform="translate(57.770772, 37.551749)"><g><path d="M 3.484375 -1.359375 C 4.023438 -1.378906 4.453125 -1.566406 4.765625 -1.921875 C 4.816406 -1.972656 4.875 -2 4.9375 -2 C 4.96875 -2 5.003906 -1.976562 5.046875 -1.9375 L 5.640625 -1.265625 C 5.679688 -1.210938 5.703125 -1.171875 5.703125 -1.140625 C 5.703125 -1.097656 5.675781 -1.046875 5.625 -0.984375 C 5.332031 -0.648438 4.96875 -0.382812 4.53125 -0.1875 C 4.09375 0 3.632812 0.09375 3.15625 0.09375 C 2.425781 0.09375 1.84375 -0.09375 1.40625 -0.46875 C 0.976562 -0.851562 0.722656 -1.382812 0.640625 -2.0625 C 0.609375 -2.21875 0.59375 -2.410156 0.59375 -2.640625 C 0.59375 -2.816406 0.609375 -3 0.640625 -3.1875 C 0.703125 -3.65625 0.796875 -4.054688 0.921875 -4.390625 C 1.148438 -4.992188 1.523438 -5.476562 2.046875 -5.84375 C 2.578125 -6.21875 3.171875 -6.40625 3.828125 -6.40625 C 4.597656 -6.40625 5.179688 -6.164062 5.578125 -5.6875 C 5.972656 -5.21875 6.191406 -4.550781 6.234375 -3.6875 C 6.234375 -3.382812 6.210938 -3.085938 6.171875 -2.796875 C 6.160156 -2.660156 6.085938 -2.59375 5.953125 -2.59375 L 2.3125 -2.59375 C 2.257812 -2.59375 2.234375 -2.566406 2.234375 -2.515625 L 2.234375 -2.390625 C 2.234375 -2.316406 2.242188 -2.234375 2.265625 -2.140625 C 2.316406 -1.890625 2.445312 -1.695312 2.65625 -1.5625 C 2.875 -1.425781 3.148438 -1.359375 3.484375 -1.359375 Z M 3.625 -4.90625 C 3.363281 -4.90625 3.140625 -4.84375 2.953125 -4.71875 C 2.773438 -4.59375 2.640625 -4.414062 2.546875 -4.1875 C 2.484375 -4.039062 2.445312 -3.9375 2.4375 -3.875 C 2.425781 -3.832031 2.441406 -3.8125 2.484375 -3.8125 L 4.5 -3.8125 C 4.550781 -3.8125 4.578125 -3.832031 4.578125 -3.875 C 4.578125 -3.945312 4.566406 -4.035156 4.546875 -4.140625 C 4.503906 -4.367188 4.40625 -4.550781 4.25 -4.6875 C 4.09375 -4.832031 3.882812 -4.90625 3.625 -4.90625 Z M 3.625 -4.90625 "/></g></g></g><g fill="#2a48a3" fill-opacity="1"><g transform="translate(47.767805, 42.04005)"><g><path d="M 2.484375 -2.703125 C 2.484375 -2.648438 2.457031 -2.625 2.40625 -2.625 L 0.953125 -2.625 C 0.929688 -2.625 0.921875 -2.617188 0.921875 -2.609375 L 0.921875 -1.90625 C 0.921875 -1.882812 0.929688 -1.875 0.953125 -1.875 L 1.890625 -1.875 C 1.941406 -1.875 1.96875 -1.851562 1.96875 -1.8125 L 1.96875 -1.40625 C 1.96875 -1.351562 1.941406 -1.328125 1.890625 -1.328125 L 0.953125 -1.328125 C 0.929688 -1.328125 0.921875 -1.320312 0.921875 -1.3125 L 0.921875 -0.578125 C 0.921875 -0.554688 0.929688 -0.546875 0.953125 -0.546875 L 2.40625 -0.546875 C 2.457031 -0.546875 2.484375 -0.519531 2.484375 -0.46875 L 2.484375 -0.078125 C 2.484375 -0.0234375 2.457031 0 2.40625 0 L 0.359375 0 C 0.304688 0 0.28125 -0.0234375 0.28125 -0.078125 L 0.28125 -3.109375 C 0.28125 -3.160156 0.304688 -3.1875 0.359375 -3.1875 L 2.40625 -3.1875 C 2.457031 -3.1875 2.484375 -3.160156 2.484375 -3.109375 Z M 2.484375 -2.703125 "/></g></g></g><g fill="#2a48a3" fill-opacity="1"><g transform="translate(50.423283, 42.04005)"><g><path d="M 0.171875 0 C 0.148438 0 0.132812 -0.00390625 0.125 -0.015625 C 0.113281 -0.0234375 0.109375 -0.0351562 0.109375 -0.046875 C 0.109375 -0.0664062 0.113281 -0.0820312 0.125 -0.09375 L 0.84375 -1.15625 C 0.84375 -1.164062 0.84375 -1.175781 0.84375 -1.1875 L 0.125 -2.234375 C 0.113281 -2.253906 0.109375 -2.269531 0.109375 -2.28125 C 0.109375 -2.300781 0.113281 -2.316406 0.125 -2.328125 C 0.132812 -2.335938 0.148438 -2.34375 0.171875 -2.34375 L 0.703125 -2.34375 C 0.734375 -2.34375 0.757812 -2.320312 0.78125 -2.28125 L 1.1875 -1.6875 C 1.195312 -1.675781 1.203125 -1.671875 1.203125 -1.671875 C 1.210938 -1.671875 1.21875 -1.675781 1.21875 -1.6875 L 1.625 -2.28125 C 1.644531 -2.320312 1.671875 -2.34375 1.703125 -2.34375 L 2.265625 -2.34375 C 2.285156 -2.34375 2.300781 -2.335938 2.3125 -2.328125 C 2.320312 -2.316406 2.328125 -2.300781 2.328125 -2.28125 C 2.328125 -2.269531 2.320312 -2.253906 2.3125 -2.234375 L 1.609375 -1.1875 C 1.597656 -1.175781 1.597656 -1.164062 1.609375 -1.15625 L 2.3125 -0.09375 C 2.320312 -0.0820312 2.328125 -0.0664062 2.328125 -0.046875 C 2.328125 -0.0351562 2.320312 -0.0234375 2.3125 -0.015625 C 2.300781 -0.00390625 2.285156 0 2.265625 0 L 1.75 0 C 1.707031 0 1.675781 -0.015625 1.65625 -0.046875 L 1.265625 -0.65625 C 1.253906 -0.664062 1.242188 -0.671875 1.234375 -0.671875 C 1.234375 -0.671875 1.226562 -0.664062 1.21875 -0.65625 L 0.828125 -0.046875 C 0.804688 -0.015625 0.773438 0 0.734375 0 Z M 0.171875 0 "/></g></g></g><g fill="#2a48a3" fill-opacity="1"><g transform="translate(52.869599, 42.04005)"><g><path d="M 1.265625 0.03125 C 1.023438 0.03125 0.816406 -0.0234375 0.640625 -0.140625 C 0.460938 -0.265625 0.332031 -0.429688 0.25 -0.640625 C 0.195312 -0.796875 0.171875 -0.976562 0.171875 -1.1875 C 0.171875 -1.382812 0.195312 -1.554688 0.25 -1.703125 C 0.320312 -1.910156 0.445312 -2.070312 0.625 -2.1875 C 0.8125 -2.3125 1.023438 -2.375 1.265625 -2.375 C 1.503906 -2.375 1.710938 -2.3125 1.890625 -2.1875 C 2.078125 -2.070312 2.203125 -1.921875 2.265625 -1.734375 C 2.285156 -1.691406 2.300781 -1.644531 2.3125 -1.59375 L 2.3125 -1.578125 C 2.3125 -1.535156 2.285156 -1.515625 2.234375 -1.515625 L 1.765625 -1.4375 L 1.734375 -1.4375 C 1.703125 -1.4375 1.679688 -1.453125 1.671875 -1.484375 L 1.65625 -1.546875 C 1.632812 -1.628906 1.585938 -1.695312 1.515625 -1.75 C 1.441406 -1.800781 1.359375 -1.828125 1.265625 -1.828125 C 1.160156 -1.828125 1.070312 -1.800781 1 -1.75 C 0.9375 -1.695312 0.894531 -1.628906 0.875 -1.546875 C 0.84375 -1.460938 0.828125 -1.335938 0.828125 -1.171875 C 0.828125 -1.015625 0.84375 -0.894531 0.875 -0.8125 C 0.894531 -0.71875 0.9375 -0.644531 1 -0.59375 C 1.070312 -0.539062 1.160156 -0.515625 1.265625 -0.515625 C 1.359375 -0.515625 1.4375 -0.535156 1.5 -0.578125 C 1.570312 -0.628906 1.625 -0.703125 1.65625 -0.796875 L 1.65625 -0.8125 C 1.664062 -0.820312 1.675781 -0.832031 1.6875 -0.84375 C 1.707031 -0.863281 1.726562 -0.875 1.75 -0.875 L 2.234375 -0.8125 C 2.253906 -0.800781 2.269531 -0.785156 2.28125 -0.765625 C 2.289062 -0.753906 2.296875 -0.738281 2.296875 -0.71875 C 2.285156 -0.664062 2.273438 -0.628906 2.265625 -0.609375 C 2.203125 -0.410156 2.078125 -0.253906 1.890625 -0.140625 C 1.710938 -0.0234375 1.503906 0.03125 1.265625 0.03125 Z M 1.265625 0.03125 "/></g></g></g><g fill="#2a48a3" fill-opacity="1"><g transform="translate(55.311368, 42.04005)"><g><path d="M 1.453125 -2.375 C 1.691406 -2.375 1.882812 -2.296875 2.03125 -2.140625 C 2.1875 -1.992188 2.265625 -1.796875 2.265625 -1.546875 L 2.265625 -0.078125 C 2.265625 -0.0234375 2.238281 0 2.1875 0 L 1.703125 0 C 1.648438 0 1.625 -0.0234375 1.625 -0.078125 L 1.625 -1.421875 C 1.625 -1.535156 1.585938 -1.628906 1.515625 -1.703125 C 1.453125 -1.785156 1.363281 -1.828125 1.25 -1.828125 C 1.144531 -1.828125 1.054688 -1.785156 0.984375 -1.703125 C 0.910156 -1.628906 0.875 -1.535156 0.875 -1.421875 L 0.875 -0.078125 C 0.875 -0.0234375 0.847656 0 0.796875 0 L 0.3125 0 C 0.257812 0 0.234375 -0.0234375 0.234375 -0.078125 L 0.234375 -3.109375 C 0.234375 -3.160156 0.257812 -3.1875 0.3125 -3.1875 L 0.796875 -3.1875 C 0.847656 -3.1875 0.875 -3.160156 0.875 -3.109375 L 0.875 -2.125 C 0.875 -2.113281 0.875 -2.109375 0.875 -2.109375 C 0.882812 -2.109375 0.894531 -2.113281 0.90625 -2.125 C 1.03125 -2.289062 1.210938 -2.375 1.453125 -2.375 Z M 1.453125 -2.375 "/></g></g></g><g fill="#2a48a3" fill-opacity="1"><g transform="translate(57.798606, 42.04005)"><g><path d="M 1.171875 -2.375 C 1.367188 -2.375 1.546875 -2.335938 1.703125 -2.265625 C 1.859375 -2.203125 1.976562 -2.109375 2.0625 -1.984375 C 2.144531 -1.867188 2.1875 -1.738281 2.1875 -1.59375 L 2.1875 -0.078125 C 2.1875 -0.0234375 2.160156 0 2.109375 0 L 1.625 0 C 1.570312 0 1.546875 -0.0234375 1.546875 -0.078125 L 1.546875 -0.1875 C 1.546875 -0.195312 1.539062 -0.203125 1.53125 -0.203125 C 1.53125 -0.203125 1.523438 -0.203125 1.515625 -0.203125 C 1.378906 -0.046875 1.171875 0.03125 0.890625 0.03125 C 0.660156 0.03125 0.472656 -0.0234375 0.328125 -0.140625 C 0.191406 -0.253906 0.125 -0.421875 0.125 -0.640625 C 0.125 -0.878906 0.203125 -1.0625 0.359375 -1.1875 C 0.523438 -1.3125 0.757812 -1.375 1.0625 -1.375 L 1.515625 -1.375 C 1.535156 -1.375 1.546875 -1.382812 1.546875 -1.40625 L 1.546875 -1.5 C 1.546875 -1.601562 1.515625 -1.679688 1.453125 -1.734375 C 1.390625 -1.796875 1.300781 -1.828125 1.1875 -1.828125 C 1.09375 -1.828125 1.015625 -1.8125 0.953125 -1.78125 C 0.898438 -1.75 0.863281 -1.707031 0.84375 -1.65625 C 0.820312 -1.613281 0.789062 -1.59375 0.75 -1.59375 L 0.25 -1.65625 C 0.21875 -1.65625 0.195312 -1.660156 0.1875 -1.671875 C 0.175781 -1.679688 0.171875 -1.695312 0.171875 -1.71875 C 0.191406 -1.84375 0.242188 -1.953125 0.328125 -2.046875 C 0.421875 -2.148438 0.539062 -2.226562 0.6875 -2.28125 C 0.832031 -2.34375 0.992188 -2.375 1.171875 -2.375 Z M 1.078125 -0.4375 C 1.210938 -0.4375 1.320312 -0.472656 1.40625 -0.546875 C 1.5 -0.617188 1.546875 -0.707031 1.546875 -0.8125 L 1.546875 -0.96875 C 1.546875 -0.988281 1.535156 -1 1.515625 -1 L 1.203125 -1 C 1.066406 -1 0.957031 -0.972656 0.875 -0.921875 C 0.800781 -0.867188 0.765625 -0.796875 0.765625 -0.703125 C 0.765625 -0.617188 0.789062 -0.550781 0.84375 -0.5 C 0.90625 -0.457031 0.984375 -0.4375 1.078125 -0.4375 Z M 1.078125 -0.4375 "/></g></g></g><g fill="#2a48a3" fill-opacity="1"><g transform="translate(60.199452, 42.04005)"><g><path d="M 1.453125 -2.375 C 1.691406 -2.375 1.882812 -2.296875 2.03125 -2.140625 C 2.1875 -1.992188 2.265625 -1.796875 2.265625 -1.546875 L 2.265625 -0.078125 C 2.265625 -0.0234375 2.238281 0 2.1875 0 L 1.703125 0 C 1.648438 0 1.625 -0.0234375 1.625 -0.078125 L 1.625 -1.421875 C 1.625 -1.535156 1.585938 -1.628906 1.515625 -1.703125 C 1.453125 -1.785156 1.363281 -1.828125 1.25 -1.828125 C 1.144531 -1.828125 1.054688 -1.785156 0.984375 -1.703125 C 0.910156 -1.628906 0.875 -1.535156 0.875 -1.421875 L 0.875 -0.078125 C 0.875 -0.0234375 0.847656 0 0.796875 0 L 0.3125 0 C 0.257812 0 0.234375 -0.0234375 0.234375 -0.078125 L 0.234375 -2.265625 C 0.234375 -2.316406 0.257812 -2.34375 0.3125 -2.34375 L 0.796875 -2.34375 C 0.847656 -2.34375 0.875 -2.316406 0.875 -2.265625 L 0.875 -2.125 C 0.875 -2.113281 0.875 -2.109375 0.875 -2.109375 C 0.882812 -2.109375 0.894531 -2.113281 0.90625 -2.125 C 1.03125 -2.289062 1.210938 -2.375 1.453125 -2.375 Z M 1.453125 -2.375 "/></g></g></g><g fill="#2a48a3" fill-opacity="1"><g transform="translate(62.68669, 42.04005)"><g><path d="M 1.671875 -2.265625 C 1.671875 -2.316406 1.691406 -2.34375 1.734375 -2.34375 L 2.234375 -2.34375 C 2.285156 -2.34375 2.3125 -2.316406 2.3125 -2.265625 L 2.3125 -0.203125 C 2.3125 0.191406 2.195312 0.472656 1.96875 0.640625 C 1.738281 0.804688 1.445312 0.890625 1.09375 0.890625 C 0.988281 0.890625 0.875 0.882812 0.75 0.875 C 0.695312 0.875 0.671875 0.847656 0.671875 0.796875 L 0.703125 0.375 C 0.703125 0.34375 0.707031 0.320312 0.71875 0.3125 C 0.738281 0.300781 0.757812 0.296875 0.78125 0.296875 C 0.894531 0.316406 0.988281 0.328125 1.0625 0.328125 C 1.25 0.328125 1.394531 0.28125 1.5 0.1875 C 1.613281 0.101562 1.671875 -0.03125 1.671875 -0.21875 C 1.671875 -0.226562 1.664062 -0.234375 1.65625 -0.234375 C 1.644531 -0.234375 1.632812 -0.226562 1.625 -0.21875 C 1.519531 -0.09375 1.351562 -0.03125 1.125 -0.03125 C 0.9375 -0.03125 0.757812 -0.078125 0.59375 -0.171875 C 0.425781 -0.273438 0.304688 -0.429688 0.234375 -0.640625 C 0.191406 -0.773438 0.171875 -0.957031 0.171875 -1.1875 C 0.171875 -1.414062 0.195312 -1.609375 0.25 -1.765625 C 0.3125 -1.941406 0.414062 -2.085938 0.5625 -2.203125 C 0.71875 -2.316406 0.894531 -2.375 1.09375 -2.375 C 1.320312 -2.375 1.5 -2.304688 1.625 -2.171875 C 1.632812 -2.160156 1.644531 -2.15625 1.65625 -2.15625 C 1.664062 -2.164062 1.671875 -2.175781 1.671875 -2.1875 Z M 1.625 -0.8125 C 1.65625 -0.90625 1.671875 -1.03125 1.671875 -1.1875 C 1.671875 -1.28125 1.664062 -1.351562 1.65625 -1.40625 C 1.644531 -1.457031 1.632812 -1.503906 1.625 -1.546875 C 1.59375 -1.628906 1.546875 -1.695312 1.484375 -1.75 C 1.421875 -1.800781 1.34375 -1.828125 1.25 -1.828125 C 1.15625 -1.828125 1.078125 -1.800781 1.015625 -1.75 C 0.953125 -1.695312 0.90625 -1.628906 0.875 -1.546875 C 0.832031 -1.460938 0.8125 -1.34375 0.8125 -1.1875 C 0.8125 -1.007812 0.832031 -0.882812 0.875 -0.8125 C 0.894531 -0.738281 0.9375 -0.675781 1 -0.625 C 1.070312 -0.570312 1.15625 -0.546875 1.25 -0.546875 C 1.351562 -0.546875 1.4375 -0.570312 1.5 -0.625 C 1.5625 -0.675781 1.601562 -0.738281 1.625 -0.8125 Z M 1.625 -0.8125 "/></g></g></g><g fill="#2a48a3" fill-opacity="1"><g transform="translate(65.214852, 42.04005)"><g><path d="M 1.359375 -0.5 C 1.566406 -0.507812 1.722656 -0.582031 1.828125 -0.71875 C 1.835938 -0.738281 1.851562 -0.75 1.875 -0.75 C 1.894531 -0.75 1.914062 -0.738281 1.9375 -0.71875 L 2.1875 -0.46875 C 2.207031 -0.457031 2.21875 -0.441406 2.21875 -0.421875 C 2.21875 -0.398438 2.210938 -0.378906 2.203125 -0.359375 C 2.097656 -0.234375 1.96875 -0.132812 1.8125 -0.0625 C 1.65625 0 1.488281 0.03125 1.3125 0.03125 C 1.03125 0.03125 0.796875 -0.0351562 0.609375 -0.171875 C 0.429688 -0.316406 0.304688 -0.515625 0.234375 -0.765625 C 0.203125 -0.898438 0.1875 -1.039062 0.1875 -1.1875 C 0.1875 -1.363281 0.203125 -1.507812 0.234375 -1.625 C 0.296875 -1.851562 0.414062 -2.035156 0.59375 -2.171875 C 0.78125 -2.304688 1 -2.375 1.25 -2.375 C 1.550781 -2.375 1.785156 -2.285156 1.953125 -2.109375 C 2.128906 -1.929688 2.242188 -1.6875 2.296875 -1.375 C 2.304688 -1.269531 2.316406 -1.160156 2.328125 -1.046875 C 2.328125 -0.992188 2.300781 -0.96875 2.25 -0.96875 L 0.859375 -0.96875 C 0.835938 -0.96875 0.828125 -0.957031 0.828125 -0.9375 C 0.835938 -0.875 0.847656 -0.828125 0.859375 -0.796875 C 0.890625 -0.703125 0.945312 -0.628906 1.03125 -0.578125 C 1.125 -0.523438 1.234375 -0.5 1.359375 -0.5 Z M 1.25 -1.828125 C 1.144531 -1.828125 1.0625 -1.800781 1 -1.75 C 0.9375 -1.707031 0.894531 -1.644531 0.875 -1.5625 C 0.851562 -1.5 0.84375 -1.457031 0.84375 -1.4375 C 0.84375 -1.425781 0.847656 -1.421875 0.859375 -1.421875 L 1.640625 -1.421875 C 1.648438 -1.421875 1.65625 -1.425781 1.65625 -1.4375 C 1.65625 -1.46875 1.648438 -1.5 1.640625 -1.53125 C 1.609375 -1.625 1.5625 -1.695312 1.5 -1.75 C 1.4375 -1.800781 1.351562 -1.828125 1.25 -1.828125 Z M 1.25 -1.828125 "/></g></g></g><g clip-path="url(#e39677bdf8)"><path fill="#ffffff" d="M 21.511719 27.40625 C 20.738281 27.265625 20.125 27.410156 19.882812 27.835938 C 19.699219 28.148438 19.753906 28.566406 20.007812 29.015625 C 20.035156 29.058594 20.070312 29.070312 20.117188 29.042969 C 20.164062 29.015625 20.171875 28.980469 20.144531 28.933594 C 19.914062 28.53125 19.871094 28.171875 20.019531 27.914062 C 20.222656 27.5625 20.769531 27.429688 21.484375 27.5625 C 21.535156 27.570312 21.566406 27.550781 21.574219 27.496094 C 21.585938 27.445312 21.5625 27.414062 21.511719 27.40625 Z M 20.410156 29.554688 C 20.722656 29.902344 21.128906 30.222656 21.59375 30.492188 C 22.71875 31.140625 23.914062 31.3125 24.5 30.910156 C 24.546875 30.882812 24.550781 30.84375 24.523438 30.800781 C 24.492188 30.757812 24.457031 30.75 24.410156 30.78125 C 23.886719 31.140625 22.75 30.976562 21.671875 30.355469 C 21.222656 30.09375 20.828125 29.78125 20.527344 29.449219 C 20.492188 29.410156 20.453125 29.410156 20.414062 29.445312 C 20.375 29.480469 20.375 29.519531 20.410156 29.558594 Z M 24.3125 29.460938 C 24.820312 28.863281 25 28.261719 24.753906 27.839844 C 24.574219 27.527344 24.195312 27.363281 23.695312 27.359375 C 23.640625 27.355469 23.613281 27.382812 23.613281 27.4375 C 23.613281 27.488281 23.640625 27.515625 23.691406 27.515625 C 24.144531 27.523438 24.46875 27.664062 24.617188 27.917969 C 24.820312 28.269531 24.660156 28.804688 24.191406 29.359375 C 24.160156 29.398438 24.164062 29.4375 24.203125 29.46875 C 24.242188 29.503906 24.28125 29.5 24.3125 29.460938 Z M 23.011719 27.429688 C 22.554688 27.53125 22.066406 27.722656 21.597656 27.992188 C 20.4375 28.660156 19.683594 29.648438 19.785156 30.363281 C 19.792969 30.414062 19.824219 30.4375 19.878906 30.429688 C 19.929688 30.421875 19.953125 30.394531 19.945312 30.339844 C 19.851562 29.707031 20.566406 28.769531 21.675781 28.128906 C 22.128906 27.867188 22.601562 27.679688 23.046875 27.585938 C 23.097656 27.574219 23.117188 27.542969 23.105469 27.492188 C 23.09375 27.441406 23.0625 27.417969 23.011719 27.429688 Z M 23.011719 27.429688 " fill-opacity="1" fill-rule="evenodd"/></g><g clip-path="url(#66b93c091c)"><path fill="#ffffff" d="M 21.132812 30.859375 C 21.398438 31.601562 21.832031 32.054688 22.320312 32.054688 C 22.675781 32.054688 23.003906 31.8125 23.261719 31.386719 C 23.289062 31.339844 23.277344 31.304688 23.234375 31.277344 C 23.1875 31.25 23.152344 31.257812 23.125 31.304688 C 22.894531 31.6875 22.613281 31.894531 22.320312 31.894531 C 21.914062 31.894531 21.527344 31.488281 21.285156 30.804688 C 21.265625 30.757812 21.230469 30.742188 21.183594 30.757812 C 21.132812 30.777344 21.117188 30.808594 21.132812 30.859375 Z M 23.554688 30.714844 C 23.691406 30.277344 23.765625 29.769531 23.765625 29.242188 C 23.765625 27.929688 23.304688 26.796875 22.648438 26.503906 C 22.601562 26.484375 22.566406 26.496094 22.542969 26.542969 C 22.523438 26.59375 22.535156 26.628906 22.585938 26.648438 C 23.171875 26.910156 23.605469 27.984375 23.605469 29.242188 C 23.605469 29.753906 23.535156 30.246094 23.402344 30.667969 C 23.386719 30.71875 23.40625 30.75 23.453125 30.765625 C 23.503906 30.78125 23.539062 30.765625 23.554688 30.714844 Z M 25.050781 30.636719 C 25.050781 30.425781 24.878906 30.257812 24.667969 30.257812 C 24.460938 30.257812 24.289062 30.425781 24.289062 30.636719 C 24.289062 30.847656 24.457031 31.015625 24.667969 31.015625 C 24.878906 31.015625 25.046875 30.847656 25.046875 30.636719 Z M 24.890625 30.636719 C 24.890625 30.785156 24.816406 30.859375 24.667969 30.859375 C 24.523438 30.859375 24.449219 30.785156 24.449219 30.636719 C 24.449219 30.488281 24.523438 30.417969 24.667969 30.417969 C 24.816406 30.417969 24.890625 30.488281 24.890625 30.636719 Z M 24.890625 30.636719 " fill-opacity="1" fill-rule="evenodd"/></g><g clip-path="url(#02d3606a80)"><path fill="#ffffff" d="M 19.964844 31.015625 C 20.175781 31.015625 20.34375 30.847656 20.34375 30.636719 C 20.34375 30.425781 20.175781 30.257812 19.964844 30.257812 C 19.859375 30.257812 19.769531 30.292969 19.695312 30.367188 C 19.621094 30.441406 19.585938 30.53125 19.585938 30.636719 C 19.585938 30.742188 19.621094 30.832031 19.695312 30.90625 C 19.769531 30.980469 19.859375 31.015625 19.964844 31.015625 Z M 19.964844 30.859375 C 19.816406 30.859375 19.742188 30.785156 19.742188 30.636719 C 19.742188 30.488281 19.816406 30.417969 19.964844 30.417969 C 20.113281 30.417969 20.1875 30.488281 20.1875 30.636719 C 20.1875 30.785156 20.113281 30.859375 19.964844 30.859375 Z M 22.320312 26.890625 C 22.53125 26.890625 22.699219 26.722656 22.699219 26.511719 C 22.699219 26.300781 22.53125 26.132812 22.320312 26.132812 C 22.109375 26.132812 21.941406 26.300781 21.941406 26.511719 C 21.941406 26.722656 22.109375 26.890625 22.320312 26.890625 Z M 22.320312 26.730469 C 22.171875 26.730469 22.097656 26.660156 22.097656 26.511719 C 22.097656 26.363281 22.171875 26.289062 22.320312 26.289062 C 22.46875 26.289062 22.542969 26.363281 22.542969 26.511719 C 22.542969 26.660156 22.46875 26.730469 22.320312 26.730469 Z M 22.378906 29.511719 C 22.304688 29.527344 22.234375 29.515625 22.171875 29.476562 C 22.105469 29.433594 22.066406 29.375 22.050781 29.300781 C 22.035156 29.226562 22.046875 29.160156 22.085938 29.09375 C 22.128906 29.03125 22.1875 28.992188 22.261719 28.976562 C 22.335938 28.957031 22.40625 28.972656 22.46875 29.011719 C 22.535156 29.054688 22.574219 29.109375 22.589844 29.183594 C 22.605469 29.261719 22.59375 29.328125 22.550781 29.394531 C 22.511719 29.457031 22.453125 29.496094 22.378906 29.511719 Z M 22.378906 29.511719 " fill-opacity="1" fill-rule="evenodd"/></g></svg>
